<mxfile host="drawio-plugin" modified="2023-04-10T21:54:22.780Z" agent="5.0 (Windows NT 6.2; Win64; x64) AppleWebKit/537.36 (KHTML, like Gecko) Chrome/104.0.5112.102 Safari/537.36" version="20.5.3" etag="i876ROGKucFqOAdCeNcu" type="embed"><diagram id="dT4_UAJD9KKSV2xhyDcy" name="Страница 1"><mxGraphModel dx="2572" dy="2563" grid="1" gridSize="10" guides="1" tooltips="1" connect="1" arrows="1" fold="1" page="0" pageScale="1" pageWidth="827" pageHeight="1169" math="0" shadow="0"><root><mxCell id="0"/><mxCell id="1" parent="0"/><mxCell id="2" value="Class &#10;Animals" style="swimlane;fontStyle=0;childLayout=stackLayout;horizontal=1;startSize=40;fillColor=#0050ef;horizontalStack=0;resizeParent=1;resizeParentMax=0;resizeLast=0;collapsible=1;marginBottom=0;fontColor=#ffffff;strokeColor=default;swimlaneLine=1;sketch=0;shadow=1;strokeWidth=2;" vertex="1" parent="1"><mxGeometry x="-1190" y="-1840" width="140" height="62" as="geometry"><mxRectangle x="290" y="50" width="78" height="41" as="alternateBounds"/></mxGeometry></mxCell><mxCell id="3" value="Class &#10;homeAnimals&#10;" style="swimlane;fontStyle=0;childLayout=stackLayout;horizontal=1;startSize=50;fillColor=#0050ef;horizontalStack=0;resizeParent=1;resizeParentMax=0;resizeLast=0;collapsible=1;marginBottom=0;fontColor=#ffffff;strokeColor=default;swimlaneLine=1;sketch=0;shadow=1;strokeWidth=2;" vertex="1" parent="1"><mxGeometry x="-1390" y="-1700" width="140" height="72" as="geometry"/></mxCell><mxCell id="4" value="Class&#10;packedAnimals" style="swimlane;fontStyle=0;childLayout=stackLayout;horizontal=1;startSize=50;fillColor=#0050ef;horizontalStack=0;resizeParent=1;resizeParentMax=0;resizeLast=0;collapsible=1;marginBottom=0;fontColor=#ffffff;strokeColor=default;swimlaneLine=1;sketch=0;shadow=1;strokeWidth=2;" vertex="1" parent="1"><mxGeometry x="-970" y="-1700" width="140" height="72" as="geometry"/></mxCell><mxCell id="5" value="Extends" style="endArrow=block;endSize=16;endFill=0;html=1;rounded=0;exitX=0.85;exitY=-0.042;exitDx=0;exitDy=0;exitPerimeter=0;fillColor=#0050ef;strokeColor=default;swimlaneLine=1;sketch=0;shadow=1;strokeWidth=2;" edge="1" parent="1" source="3"><mxGeometry width="160" relative="1" as="geometry"><mxPoint x="-1150" y="-1530" as="sourcePoint"/><mxPoint x="-1150" y="-1780" as="targetPoint"/><Array as="points"><mxPoint x="-1271" y="-1730"/><mxPoint x="-1150" y="-1730"/></Array></mxGeometry></mxCell><mxCell id="6" value="Extends" style="endArrow=block;endSize=16;endFill=0;html=1;rounded=0;exitX=0.457;exitY=-0.05;exitDx=0;exitDy=0;exitPerimeter=0;fillColor=#0050ef;strokeColor=default;swimlaneLine=1;sketch=0;shadow=1;strokeWidth=2;" edge="1" parent="1" source="4"><mxGeometry x="-0.1043" y="3" width="160" relative="1" as="geometry"><mxPoint x="-880" y="-1770" as="sourcePoint"/><mxPoint x="-1080" y="-1780" as="targetPoint"/><Array as="points"><mxPoint x="-906" y="-1730"/><mxPoint x="-1080" y="-1730"/></Array><mxPoint as="offset"/></mxGeometry></mxCell><mxCell id="7" value="Class&#10; Dog" style="swimlane;fontStyle=0;childLayout=stackLayout;horizontal=1;startSize=28;fillColor=#0050ef;horizontalStack=0;resizeParent=1;resizeParentMax=0;resizeLast=0;collapsible=1;marginBottom=0;fontColor=#ffffff;strokeColor=default;swimlaneLine=1;sketch=0;shadow=1;strokeWidth=2;" vertex="1" parent="1"><mxGeometry x="-1450" y="-1560" width="80" height="64" as="geometry"/></mxCell><mxCell id="8" value="Class&#10; Cat" style="swimlane;fontStyle=0;childLayout=stackLayout;horizontal=1;startSize=26;fillColor=#0050ef;horizontalStack=0;resizeParent=1;resizeParentMax=0;resizeLast=0;collapsible=1;marginBottom=0;fontColor=#ffffff;strokeColor=default;swimlaneLine=1;sketch=0;shadow=1;strokeWidth=2;" vertex="1" parent="1"><mxGeometry x="-1360" y="-1560" width="80" height="64" as="geometry"/></mxCell><mxCell id="9" value="Class&#10; Hamster" style="swimlane;fontStyle=0;childLayout=stackLayout;horizontal=1;startSize=26;fillColor=#0050ef;horizontalStack=0;resizeParent=1;resizeParentMax=0;resizeLast=0;collapsible=1;marginBottom=0;fontColor=#ffffff;strokeColor=default;swimlaneLine=1;sketch=0;shadow=1;strokeWidth=2;" vertex="1" parent="1"><mxGeometry x="-1260" y="-1560" width="80" height="64" as="geometry"/></mxCell><mxCell id="10" value="Extends" style="endArrow=block;endSize=16;endFill=0;html=1;rounded=0;entryX=0.75;entryY=1;entryDx=0;entryDy=0;fillColor=#0050ef;strokeColor=default;swimlaneLine=1;sketch=0;shadow=1;strokeWidth=2;" edge="1" parent="9" target="3"><mxGeometry width="160" relative="1" as="geometry"><mxPoint x="40" as="sourcePoint"/><mxPoint x="200" as="targetPoint"/></mxGeometry></mxCell><mxCell id="11" value="Class&#10; Camel" style="swimlane;fontStyle=0;childLayout=stackLayout;horizontal=1;startSize=26;fillColor=#0050ef;horizontalStack=0;resizeParent=1;resizeParentMax=0;resizeLast=0;collapsible=1;marginBottom=0;fontColor=#ffffff;strokeColor=default;swimlaneLine=1;sketch=0;shadow=1;strokeWidth=2;" vertex="1" parent="1"><mxGeometry x="-940" y="-1560" width="80" height="62" as="geometry"/></mxCell><mxCell id="12" value="Class&#10; Donkey" style="swimlane;fontStyle=0;childLayout=stackLayout;horizontal=1;startSize=26;fillColor=#0050ef;horizontalStack=0;resizeParent=1;resizeParentMax=0;resizeLast=0;collapsible=1;marginBottom=0;fontColor=#ffffff;strokeColor=default;swimlaneLine=1;sketch=0;shadow=1;strokeWidth=2;" vertex="1" parent="1"><mxGeometry x="-830" y="-1560" width="80" height="62" as="geometry"/></mxCell><mxCell id="13" value="Class&#10; Horse" style="swimlane;fontStyle=0;childLayout=stackLayout;horizontal=1;startSize=30;fillColor=#0050ef;horizontalStack=0;resizeParent=1;resizeParentMax=0;resizeLast=0;collapsible=1;marginBottom=0;fontColor=#ffffff;strokeColor=default;swimlaneLine=1;sketch=0;shadow=1;strokeWidth=2;" vertex="1" parent="1"><mxGeometry x="-1066" y="-1560" width="80" height="62" as="geometry"/></mxCell><mxCell id="14" value="Extends" style="endArrow=block;endSize=16;endFill=0;html=1;rounded=0;exitX=0.5;exitY=0;exitDx=0;exitDy=0;entryX=0.25;entryY=1;entryDx=0;entryDy=0;fillColor=#0050ef;strokeColor=default;swimlaneLine=1;sketch=0;shadow=1;strokeWidth=2;" edge="1" parent="1" source="7" target="3"><mxGeometry width="160" relative="1" as="geometry"><mxPoint x="-1150" y="-1530" as="sourcePoint"/><mxPoint x="-990" y="-1530" as="targetPoint"/></mxGeometry></mxCell><mxCell id="15" value="Extends" style="endArrow=block;endSize=16;endFill=0;html=1;rounded=0;exitX=0.594;exitY=0.023;exitDx=0;exitDy=0;exitPerimeter=0;entryX=0.25;entryY=1;entryDx=0;entryDy=0;fillColor=#0050ef;strokeColor=default;swimlaneLine=1;sketch=0;shadow=1;strokeWidth=2;" edge="1" parent="1" source="13" target="4"><mxGeometry width="160" relative="1" as="geometry"><mxPoint x="-1150" y="-1530" as="sourcePoint"/><mxPoint x="-990" y="-1530" as="targetPoint"/></mxGeometry></mxCell><mxCell id="16" value="Extends" style="endArrow=block;endSize=16;endFill=0;html=1;rounded=0;exitX=0.5;exitY=0;exitDx=0;exitDy=0;entryX=0.5;entryY=1;entryDx=0;entryDy=0;fillColor=#0050ef;strokeColor=default;swimlaneLine=1;sketch=0;shadow=1;strokeWidth=2;" edge="1" parent="1" source="8" target="3"><mxGeometry width="160" relative="1" as="geometry"><mxPoint x="-1150" y="-1530" as="sourcePoint"/><mxPoint x="-990" y="-1530" as="targetPoint"/></mxGeometry></mxCell><mxCell id="17" value="Extends" style="endArrow=block;endSize=16;endFill=0;html=1;rounded=0;exitX=0.5;exitY=0;exitDx=0;exitDy=0;entryX=0.75;entryY=1;entryDx=0;entryDy=0;fillColor=#0050ef;strokeColor=default;swimlaneLine=1;sketch=0;shadow=1;strokeWidth=2;" edge="1" parent="1" source="12" target="4"><mxGeometry width="160" relative="1" as="geometry"><mxPoint x="-1150" y="-1530" as="sourcePoint"/><mxPoint x="-990" y="-1530" as="targetPoint"/></mxGeometry></mxCell><mxCell id="18" value="Extends" style="endArrow=block;endSize=16;endFill=0;html=1;rounded=0;exitX=0.5;exitY=0;exitDx=0;exitDy=0;entryX=0.5;entryY=1;entryDx=0;entryDy=0;fillColor=#0050ef;strokeColor=default;swimlaneLine=1;sketch=0;shadow=1;strokeWidth=2;" edge="1" parent="1" source="11" target="4"><mxGeometry width="160" relative="1" as="geometry"><mxPoint x="-1150" y="-1530" as="sourcePoint"/><mxPoint x="-990" y="-1530" as="targetPoint"/></mxGeometry></mxCell></root></mxGraphModel></diagram></mxfile>